<?xml version="1.0" standalone="no"?>
<!DOCTYPE svg PUBLIC "-//W3C//DTD SVG 1.1//EN" "http://www.w3.org/Graphics/SVG/1.1/DTD/svg11.dtd" >
<svg xmlns="http://www.w3.org/2000/svg">
<metadata>Generated by IcoMoon</metadata>
<defs>
<font id="icomoon" horiz-adv-x="1024">
<font-face units-per-em="1024" ascent="960" descent="-64" />
<missing-glyph horiz-adv-x="1024" />
<glyph unicode="&#x20;" horiz-adv-x="512" d="" />
<glyph unicode="&#xe900;" glyph-name="add" d="M874.22 810.18c-199.729 199.729-524.729 199.776-724.458 0.046s-199.66-524.706 0.070-724.435c199.683-199.683 524.659-199.752 724.389-0.023s199.683 524.729 0 724.412zM198.992 134.952c-172.642 172.642-172.642 453.495-0.046 626.091 172.619 172.619 453.472 172.619 626.114-0.023 172.596-172.596 172.596-453.449-0.023-626.068-172.596-172.596-453.449-172.596-626.045 0zM529.37 163.876c-0.046-9.571-7.805-17.33-17.379-17.379-4.811 0.002-9.141 1.93-12.317 5.106-3.131 3.131-5.062 7.464-5.062 12.273v266.789l-266.833 0.044c-4.765-0.044-9.142 1.931-12.273 5.062-3.129 3.129-5.104 7.506-5.060 12.27 0.002 9.62 7.761 17.379 17.379 17.379l266.766-0.023v266.789c0.021 9.55 7.803 17.332 17.376 17.376 9.597-0.021 17.356-7.78 17.376-17.376v-266.789l266.745 0.044c9.597-0.021 17.356-7.78 17.376-17.376 0-9.617-7.782-17.4-17.376-17.376l-266.742-0.046 0.023-266.766z" />
<glyph unicode="&#xe901;" glyph-name="anchor" d="M512.004-64l-25.17 11.455c-22.955 10.484-46.103 20.052-69.205 29.598-49.627 20.504-100.949 41.708-148.984 71.668-67.68 42.205-117.172 94.996-150.611 160.835-8.834-2.644-16.708-2.045-22.074-0.983-36.116 7.14-41.787 47.786-43.923 63.093-3.163 22.040-3.762 44.973-4.067 64.72-0.237 15.375 0.023 30.705 0.305 46.001 0.226 13.127 0.463 26.232 0.35 39.336l-0.136 14.991 56.089 25.689 11.263-9.84c6.044-5.287 12.596-10.359 19.035-15.364l6.010-4.688c13.229-10.382 26.469-20.798 39.483-31.473 15.511-12.754 33.36-27.711 48.814-43.968 10.642-11.24 38.895-41.030 22.549-73.837-2.836-5.728-8.111-13.274-17.567-18.9 53.66-62.495 145.821-94.691 198.623-108.767v378.899h-71.261c-15.398-12.065-34.252-18.617-54.067-18.617-48.373 0-87.732 39.37-87.732 87.755 0 48.373 39.359 87.732 87.732 87.732 24.526 0 47.73-10.258 64.212-27.926h61.116v14.697c-46.555 26.672-75.893 76.537-75.893 130.965 0 83.225 67.691 150.927 150.905 150.927 83.225 0 150.927-67.703 150.927-150.927 0-52.983-28.242-102.226-73.069-129.305v-16.358h62.144c16.448 17.668 39.652 27.926 64.201 27.926 48.374 0 87.732-39.359 87.732-87.732 0-48.385-39.359-87.755-87.732-87.755-19.849 0-38.703 6.552-54.056 18.617h-72.289v-380.334c53.943 13.805 149.086 45.979 204.079 110.077-8.766 5.23-14.166 12.359-17.476 19.047-16.358 32.84 11.918 62.608 22.56 73.814 15.341 16.166 33.247 31.168 48.814 43.956 13.014 10.687 26.254 21.103 39.494 31.485l5.795 4.53c6.496 5.050 13.104 10.179 19.216 15.522l11.263 9.84 56.078-25.678-0.124-14.98c-0.102-13.093 0.136-26.175 0.361-39.279 0.271-15.33 0.542-30.671 0.316-46.069-0.328-21.103-1.051-43.55-4.067-64.788-2.18-15.307-7.976-55.942-44.002-63.048-5.343-1.085-13.195-1.638-21.995 0.983-33.439-65.827-82.931-118.618-150.611-160.823-48.001-29.926-99.255-51.107-148.826-71.6-23.147-9.557-46.351-19.148-69.318-29.654l-25.215-11.466zM133.523 288.883l15.307-35.924c29.7-69.68 75.554-122.097 144.307-164.969 44.77-27.926 92.081-47.481 142.172-68.177 23.622-9.761 47.289-19.544 70.719-30.253l5.976-2.723 6.010 2.734c23.441 10.721 47.176 20.538 70.843 30.321 50.034 20.673 97.278 40.206 142.014 68.098 68.753 42.872 114.607 95.29 144.307 164.969l15.307 35.924 24.153-30.682c2.881-3.66 4.632-4.304 4.632-4.304 0.587 0.689 4.090 4.564 6.88 24.232 2.802 19.634 3.333 40.737 3.615 58.981 0.226 14.878-0.045 29.711-0.305 44.533-0.147 8.484-0.305 16.957-0.361 25.429l-2.146 0.983c-3.186-2.531-6.405-5.038-9.614-7.535l-5.637-4.406c-12.98-10.179-25.949-20.368-38.692-30.841-15.16-12.449-31.089-25.802-44.623-40.070-14.471-15.228-14.799-20.425-14.72-21.329 0.136-0.034 3.423-1.819 13.556-0.87l45.030 4.259-22.899-39.008c-65.342-111.32-219.138-153.074-282.231-165.862l-27.734-5.626v483.972h136.749l6.767-6.688c7.784-7.693 18.12-11.93 29.101-11.93 22.865 0 41.46 18.606 41.46 41.482 0 22.865-18.595 41.46-41.46 41.46-13.647 0-26.412-6.699-34.128-17.906l-6.902-10.020h-131.587v91.076l13.229 6.27c36.354 17.228 59.84 54.35 59.84 94.589 0 57.705-46.95 104.655-104.655 104.655-57.693 0-104.632-46.95-104.632-104.655 0-41.336 24.39-78.875 62.144-95.64l13.748-6.112v-90.183h-130.525l-6.902 9.987c-7.761 11.229-20.538 17.94-34.173 17.94-22.865 0-41.46-18.595-41.46-41.46 0-22.876 18.595-41.482 41.46-41.482 10.969 0 21.317 4.248 29.157 11.963l6.756 6.654h135.688v-483.080l-27.937 5.931c-61.749 13.082-212.315 55.332-276.493 164.664l-22.899 39.008 45.030-4.259c10.529-0.983 13.714 0.994 13.748 1.028-0.090 0.712-0.395 5.897-14.889 21.182-13.624 14.336-30.174 28.197-44.623 40.070-12.743 10.461-25.712 20.651-38.681 30.829l-5.841 4.553c-3.141 2.44-6.304 4.903-9.433 7.399l-2.146-0.983c-0.056-8.507-0.215-17.002-0.362-25.52-0.26-14.776-0.531-29.587-0.294-44.453 0.282-18.335 0.825-39.517 3.604-58.959 2.7-19.34 6.157-23.419 7.241-24.243 0.079 0.181 1.74 1.062 4.282 4.293l24.153 30.683zM507.802 736.479c-40.014 0-72.572 32.569-72.572 72.594s32.558 72.594 72.572 72.594c40.025 0 72.594-32.569 72.594-72.594s-32.569-72.594-72.594-72.594zM507.802 835.395c-14.505 0-26.299-11.805-26.299-26.322s11.794-26.322 26.299-26.322c14.517 0 26.322 11.805 26.322 26.322s-11.805 26.322-26.322 26.322z" />
<glyph unicode="&#xe902;" glyph-name="arr-circle-down" d="M1024 448c0 282.315-229.717 512-512.018 512-282.33 0-511.982-229.685-511.982-512 0-282.299 229.653-512 511.982-512 282.301 0 512.018 229.701 512.018 512zM33.917 448c0 263.618 214.432 478.067 478.066 478.067 263.605 0 478.069-214.449 478.069-478.067s-214.464-478.067-478.069-478.067c-263.633 0-478.066 214.449-478.066 478.067zM541.39 137.294l253.644 439.298c6.045 10.474 6.045 23.472 0 33.933-6.074 10.506-17.257 16.958-29.376 16.958h-507.316c-12.122 0-23.334-6.452-29.408-16.958-3.040-5.231-4.509-11.103-4.509-16.974 0-5.84 1.469-11.715 4.509-16.958l253.673-439.298c6.045-10.506 17.257-16.958 29.376-16.958 12.122 0 23.334 6.452 29.408 16.958zM317.093 559.634h389.782l-194.893-337.516-194.889 337.516z" />
<glyph unicode="&#xe903;" glyph-name="arr-circle-up" d="M511.982 960c-282.33 0-511.982-229.701-511.982-512 0-282.315 229.653-512 511.982-512 282.301 0 512.018 229.685 512.018 512 0 282.299-229.717 512-512.018 512zM511.982 926.067c263.605 0 478.069-214.449 478.069-478.067s-214.464-478.067-478.069-478.067c-263.633 0-478.066 214.449-478.066 478.067s214.432 478.067 478.066 478.067zM511.982 775.664c-12.119 0-23.331-6.452-29.376-16.958l-253.673-439.298c-3.040-5.243-4.509-11.119-4.509-16.958 0-5.872 1.469-11.744 4.509-16.974 6.074-10.506 17.285-16.958 29.408-16.958h507.316c12.119 0 23.302 6.452 29.376 16.958 6.045 10.461 6.045 23.459 0 33.933l-253.644 439.298c-6.074 10.506-17.285 16.958-29.408 16.958zM511.982 673.882l194.893-337.516h-389.782l194.889 337.516z" />
<glyph unicode="&#xe904;" glyph-name="arr-down" d="M986.442-64c-0.613 0-1.222 0.035-1.835 0.066l-796.805 39.886c-14.572 0.714-27.307 9.935-32.561 23.546-5.22 13.615-1.971 29.027 8.35 39.339l213.245 213.406-366.047 366.3c-14.385 14.395-14.385 37.739 0 52.134l278.329 278.503c14.385 14.427 37.697 14.427 52.078 0l366.047-366.268 213.248 213.406c10.286 10.343 25.691 13.611 39.292 8.37 13.601-5.276 22.818-18.002 23.532-32.603l39.529-790.041c0.766-2.927 1.156-6.025 1.156-9.189 0-20.486-15.743-36.38-37.182-36.854-0.122 0-0.258 0-0.376 0zM274.378 45.44l673.214-33.69-33.717 673.694-180.565-180.698c-14.402-14.43-37.711-14.43-52.096 0l-366.047 366.23-226.236-226.369 366.029-366.335c14.402-14.392 14.402-37.704 0-52.134l-180.582-180.698z" />
<glyph unicode="&#xe905;" glyph-name="arr-left" d="M9.332 426.605c-12.443 13.006-12.366 31.769-0.224 43.909 1.875 1.875 3.943 3.479 6.132 4.759l491.693 444.714c9.077 8.229 22.090 10.299 33.288 5.353 11.178-4.967 18.383-16.048 18.358-28.282l0.078-253.036 434.315-0.216c17.085 0.013 30.921-13.824 30.907-30.911l0.12-330.241c0.005-17.069-13.83-30.902-30.899-30.895l-434.334 0.197 0.076-253.034c0.014-12.236-7.193-23.298-18.359-28.268-11.185-4.947-24.207-2.853-33.279 5.373l-496.522 449.305c-0.382 0.345-0.765 0.686-1.128 1.050-0.070 0.070-0.151 0.151-0.223 0.223zM496.932 282.858c0.005 17.1 13.822 30.914 30.898 30.895l434.344-0.166-0.103 268.427-434.293 0.239c-17.089-0.013-30.923 13.822-30.918 30.921l-0.066 214.255-419.289-379.217 419.502-379.62-0.076 214.265z" />
<glyph unicode="&#xe906;" glyph-name="arr-right" d="M1014.445 426.382c-0.364-0.364-0.746-0.705-1.128-1.050l-496.522-449.305c-9.072-8.226-22.094-10.32-33.279-5.373-11.167 4.97-18.373 16.032-18.359 28.268l0.076 253.034-434.334-0.197c-17.069-0.007-30.904 13.826-30.898 30.895l0.12 330.241c-0.013 17.087 13.822 30.924 30.907 30.911l434.315 0.216 0.078 253.036c-0.025 12.234 7.18 23.315 18.358 28.282 11.199 4.947 24.211 2.876 33.288-5.353l491.693-444.714c2.189-1.28 4.257-2.884 6.132-4.759 12.142-12.14 12.219-30.903-0.224-43.909-0.072-0.072-0.153-0.153-0.223-0.223zM526.992 68.592l419.502 379.62-419.289 379.217-0.066-214.255c0.005-17.1-13.828-30.935-30.918-30.921l-434.293-0.239-0.103-268.427 434.344 0.166c17.077 0.020 30.893-13.795 30.899-30.895l-0.076-214.265z" />
<glyph unicode="&#xe907;" glyph-name="arr-up" d="M986.818 960c21.439-0.474 37.182-16.368 37.182-36.854 0-3.164-0.39-6.262-1.156-9.189l-39.529-790.041c-0.714-14.601-9.931-27.327-23.532-32.603-13.601-5.241-29.006-1.972-39.292 8.37l-213.248 213.406-366.047-366.268c-14.381-14.427-37.694-14.427-52.078 0l-278.329 278.503c-14.385 14.395-14.385 37.739 0 52.134l366.047 366.3-213.245 213.406c-10.321 10.311-13.57 25.724-8.35 39.339 5.255 13.611 17.989 22.832 32.561 23.546l796.805 39.886c0.613 0.031 1.222 0.066 1.835 0.066 0.118 0 0.254 0 0.376 0zM454.96 669.861c14.402-14.43 14.402-37.743 0-52.134l-366.029-366.335 226.236-226.369 366.047 366.23c14.385 14.43 37.694 14.43 52.096 0l180.565-180.698 33.717 673.694-673.214-33.69 180.582-180.698z" />
<glyph unicode="&#xe908;" glyph-name="calendar" d="M1021.395 332.369c-21.159 73.897-72.202 147.592-121.557 218.892-47.86 69.050-97.312 140.466-117.219 209.431-10.074 51.494-49.018 90.081-95.528 90.081h-498.328c-54.175 0-98.23-52.121-98.23-116.213v-43.46c-10.362-69.050-25.833-138.698-41.209-206.58-19.473-86.177-39.62-175.26-48.778-263.347-2.458-22.969 3.472-45.398 16.727-63.178 15.616-20.862 38.993-32.803 64.295-32.803h14.269c12.916-46.279 49.498-79.964 92.926-79.964h498.328c33.594 0 63.283 20.176 81.022 50.697h9.494c24.582 0.058 47.766 11.883 63.622 32.543 2.749 3.563 4.965 7.438 7.087 11.314h6.893c26.221 0 50.898 12.881 65.983 34.455 12.243 17.497 17.013 39.042 13.593 60.643-0.723 4.36-1.639 8.749-2.411 13.082h13.351c29.739 0 56.441 13.736 69.744 35.879 8.773 14.646 10.844 31.887 5.928 48.529zM35.394 176.886c-6.123 8.18-12.919 21.886-10.942 40.752 8.965 86.177 28.92 174.294 48.198 259.501 15.665 69.362 31.523 140.492 41.932 211.567h2.219c6.7 0 12.050 6.356 12.050 14.249 0 7.237-4.58 12.995-10.508 13.879 1.012 7.92 2.312 15.787 3.181 23.681 4 37.817 33.497 67.424 67.091 67.424h498.328c18.123 0 35.378-8.635 46.175-23.138 6.12-8.15 12.966-21.86 10.94-40.752-0.962-8.892-2.409-17.897-3.566-26.818h-1.35c-6.601 0-12-6.353-12-14.276 0-6.899 4.146-12.341 9.639-13.68-10.313-68.481-25.69-137.53-40.921-204.756-19.52-86.177-39.667-175.26-48.825-263.347-4.050-37.846-33.547-67.483-67.141-67.483h-498.328c-18.074 0-35.376 8.664-46.172 23.196zM687.090 102.309h-498.328c-15.954 0-30.077 9.006-39.233 22.881h430.366c45.548 0 85.553 40.583 91.049 92.448 9.012 86.177 28.967 174.294 48.198 259.501 6.073 26.701 12.050 53.802 17.881 80.962v-396.661c0-32.602-22.412-59.131-49.933-59.131zM823.395 147.675c-10.796-14.106-26.605-22.254-43.571-22.94 3.277 11.629 5.493 23.795 5.493 36.705v352.177c3.134-16.87 6.169-33.883 9.35-50.528 16.966-88.911 34.463-180.874 41.597-270.812 1.301-16.275-3.277-32.147-12.869-44.601zM902.586 192.445c-9.93-14.191-26.22-22.741-44.005-23.739 1.589 8.521 2.409 17.27 1.685 26.249-7.228 91.791-24.966 184.606-42.029 274.404-7.231 37.758-14.412 76.118-20.966 114.588 11.665-34.169 24.293-68.166 36.92-101.652 31.378-83.069 63.814-169.018 76.829-252.717 2.747-16.87-3.085-29.552-8.435-37.134zM995.755 300.368c-8.531-14.279-28.631-23.853-50.032-23.853h-19.039c-16.147 73.124-43.618 146.308-70.465 217.38-20.87 55.428-42.127 112.026-57.887 168.422 23.809-43.603 53.499-86.804 82.853-129.182 48.006-69.248 97.603-140.921 117.412-210.056 2.411-8.121 1.493-15.531-2.843-22.712zM236.526 557.588c7.665 0 15.377 0 23.089 0-17.738-82.074-38.221-164.147-52.537-246.276-7.712 0-15.424 0-23.089 0 12.726 72.896 30.319 145.795 46.513 218.606-17.208-13.508-34.51-26.958-51.814-40.44 2.216 9.434 4.289 18.895 6.458 28.327 17.158 13.251 34.317 26.503 51.379 39.783zM668.194 543.852c0-7.864-5.397-14.276-12.050-14.276h-257.767c-6.651 0-12.097 6.411-12.097 14.276 0 7.894 5.446 14.308 12.097 14.308h257.767c6.653 0 12.050-6.414 12.050-14.308zM654.074 480.843c0-7.894-5.399-14.276-12.099-14.276h-257.717c-6.653 0-12.050 6.382-12.050 14.276 0 7.867 5.397 14.249 12.050 14.249h257.717c6.7 0 12.099-6.382 12.099-14.249zM539.793 417.778c0-7.835-5.446-14.22-12.050-14.22h-157.61c-6.651 0-12.050 6.385-12.050 14.22 0 7.923 5.399 14.305 12.050 14.305h157.61c6.604 0 12.050-6.382 12.050-14.305zM634.889 702.956c0 7.923 5.399 14.276 12.1 14.276h23.036c6.653 0 12.050-6.353 12.050-14.276 0-7.894-5.397-14.249-12.050-14.249h-23.036c-6.7 0-12.1 6.356-12.1 14.249zM542.732 702.956c0 7.923 5.399 14.276 12.050 14.276h23.039c6.653 0 12.050-6.353 12.050-14.276 0-7.894-5.397-14.249-12.050-14.249h-23.039c-6.651 0-12.050 6.356-12.050 14.249zM185.966 688.707c-6.7 0-12.097 6.356-12.097 14.249 0 7.923 5.397 14.276 12.097 14.276h23.039c6.7 0 12.050-6.353 12.050-14.276 0-7.894-5.35-14.249-12.050-14.249h-23.039zM450.529 702.956c0 7.923 5.35 14.276 12 14.276h23.089c6.651 0 12.097-6.353 12.097-14.276 0-7.894-5.446-14.249-12.097-14.249h-23.089c-6.651 0-12 6.356-12 14.249zM313.308 702.956c0-7.894-5.446-14.249-12.1-14.249h-23.039c-6.698 0-12.097 6.356-12.097 14.249 0 7.923 5.399 14.276 12.097 14.276h23.039c6.653 0 12.1-6.353 12.1-14.276zM358.276 702.956c0 7.923 5.399 14.276 12.050 14.276h23.088c6.651 0 12.048-6.353 12.048-14.276 0-7.894-5.397-14.249-12.048-14.249h-23.088c-6.651 0-12.050 6.356-12.050 14.249z" />
<glyph unicode="&#xe909;" glyph-name="cancel" d="M779.695-64c-9.289 0-18.652 3.563-25.76 10.726l-241.923 241.849-241.927-241.849c-14.196-14.256-37.23-14.256-51.464 0l-207.951 207.891c-14.196 14.218-14.196 37.23 0 51.486l241.946 241.923-241.946 241.853c-6.817 6.873-10.67 16.143-10.67 25.778 0 9.669 3.853 18.943 10.67 25.741l207.951 207.928c14.233 14.218 37.268 14.218 51.464 0l241.927-241.886 241.923 241.923c14.233 14.181 37.286 14.181 51.52 0l207.913-207.966c14.215-14.218 14.215-37.268 0-51.519l-241.927-241.853 241.927-241.961c6.85-6.835 10.633-16.072 10.633-25.741 0-9.672-3.783-18.943-10.633-25.741l-207.913-207.858c-7.126-7.163-16.434-10.726-25.76-10.726zM512.012 276.491c9.308 0 18.615-3.526 25.741-10.655l241.942-241.923 156.446 156.412-241.905 241.923c-14.233 14.218-14.233 37.268 0 51.482l241.905 241.927-156.446 156.446-241.942-241.886c-14.2-14.256-37.249-14.256-51.467 0l-241.923 241.849-156.465-156.409 241.942-241.89c6.836-6.836 10.652-16.106 10.652-25.741 0-9.672-3.816-18.943-10.652-25.741l-241.942-241.927 156.465-156.446 241.923 241.923c7.111 7.13 16.419 10.655 25.726 10.655z" />
<glyph unicode="&#xe90a;" glyph-name="channel" d="M654.49 722.646c0-31.136 25.361-56.493 56.542-56.493 31.149 0 56.526 25.357 56.526 56.493 0 31.165-25.377 56.526-56.526 56.526-31.181 0-56.542-25.361-56.542-56.526zM733.551 722.646c0-12.396-10.108-22.504-22.52-22.504-12.428 0-22.552 10.108-22.552 22.504 0 12.428 10.124 22.536 22.552 22.536 12.412 0 22.52-10.108 22.52-22.536zM658.475 912.184c133.482-0.096 242.107-108.69 242.107-242.046 0-9.417 7.598-17.011 16.995-17.011 9.401 0 16.995 7.594 16.995 17.011 0 152.125-123.846 275.972-276.097 276.036-9.401 0-17.011-7.598-17.011-17.011 0-9.384 7.61-16.979 17.011-16.979zM658.475 835.948c91.473-0.032 165.903-74.446 165.903-165.842 0-9.413 7.598-17.011 16.995-17.011 9.401 0 17.011 7.627 17.011 17.043 0 110.133-89.683 199.8-199.909 199.832-9.401 0-17.011-7.627-17.011-17.011 0-9.417 7.61-17.011 17.011-17.011zM942.906 142.456l-391.768 391.751 78.637 78.653c6.637 6.653 6.637 17.419 0 24.040-6.64 6.656-17.39 6.656-24.027 0l-78.637-78.65-391.784 391.784c-9.15 9.195-22.802 12.335-34.996 8.128-12.254-4.143-21.089-14.97-22.738-27.806-30.458-234.699 47.581-464.883 214.143-631.506 16.101-16.101 32.971-31.104 50.201-45.541l-100.511-271.517c-3.876-10.419-2.388-22.095 3.985-31.226 6.341-9.134 16.776-14.565 27.887-14.565h300.484c0.235 0 0.517 0 0.675 0 18.798 0 34.006 15.224 34.006 33.99 0 6.498-1.822 12.589-4.991 17.766l-52.649 142.268c86.247-33.582 178.771-51.66 274.246-51.66h0.032c32.672 0 65.704 2.102 98.158 6.309 12.836 1.665 23.648 10.516 27.79 22.754 4.191 12.274 1.038 25.862-8.144 35.028zM524.945 4.012h-202.795l76.423 206.456c20.996-14.469 42.558-27.871 64.766-39.987l61.607-166.469zM825.101 146.377h-0.032c-183.493 0-355.846 71.216-485.249 200.555-134.487 134.517-205.511 314.702-200.427 502.887l703.236-703.285c-5.885-0.093-11.705-0.158-17.528-0.158z" />
<glyph unicode="&#xe90b;" glyph-name="chat-full" d="M779.854 641.782c0-9.064-7.338-16.43-16.43-16.43h-502.847c-9.092 0-16.43 7.366-16.43 16.43s7.338 16.43 16.43 16.43h502.848c9.092 0 16.43-7.366 16.43-16.43zM763.424 518.343h-502.847c-9.092 0-16.43-7.335-16.43-16.43 0-9.092 7.338-16.43 16.43-16.43h502.848c9.092 0 16.43 7.338 16.43 16.43 0 9.095-7.338 16.43-16.43 16.43zM615.673 378.477h-355.097c-9.092 0-16.43-7.335-16.43-16.43s7.338-16.399 16.43-16.399h355.097c9.095 0 16.43 7.304 16.43 16.399s-7.335 16.43-16.43 16.43zM1024 490.334c0-239.509-229.656-434.395-511.998-434.395-40.562 0-81.909 4.395-123.259 13.124l-288.343-96.126c-3.396-1.121-6.913-1.667-10.368-1.667-8.912 0-17.703 3.669-24.007 10.43-8.732 9.365-11.218 23.008-6.366 34.89l74.207 180.701c-86.515 80.149-133.866 183.367-133.866 293.042 0 239.509 229.656 434.395 512.002 434.395 282.343 0 511.998-194.887 511.998-434.395zM958.341 490.334c0 203.314-200.253 368.706-446.34 368.706-246.089 0-446.343-165.391-446.343-368.706 0-97.367 45.653-189.25 128.592-258.698 10.973-9.216 14.732-24.433 9.278-37.65l-55.899-136.048 228.93 76.3c5.699 1.881 11.82 2.182 17.581 0.85 39.649-8.943 79.239-13.459 117.861-13.459 246.087 0 446.34 165.391 446.34 368.706z" />
<glyph unicode="&#xe90c;" glyph-name="chat" d="M90.032-28.729c-8.974 0-17.644 3.669-23.948 10.43-8.853 9.365-11.277 23.008-6.426 34.89l74.207 180.701c-86.515 80.149-133.866 183.367-133.866 293.042 0 239.509 229.656 434.395 511.999 434.395s512.001-194.887 512.001-434.395-229.659-434.395-512.001-434.395c-40.5 0-81.909 4.395-123.256 13.124l-288.284-96.126c-3.396-1.121-6.972-1.667-10.427-1.667zM511.999 859.040c-246.087 0-446.278-165.391-446.278-368.706 0-97.367 45.59-189.25 128.53-258.698 10.973-9.216 14.732-24.433 9.275-37.65l-55.899-136.048 228.93 76.3c5.699 1.881 11.824 2.182 17.644 0.85 39.528-8.943 79.239-13.459 117.799-13.459 246.148 0 446.339 165.391 446.339 368.706s-200.192 368.706-446.34 368.706z" />
<glyph unicode="&#xe90d;" glyph-name="close" d="M512.082 960c-282.338 0-512.082-229.678-512.082-512.016s229.744-511.984 512.082-511.984c282.273 0 512.016 229.645 512.016 511.984s-229.744 512.016-512.016 512.016zM512.082 5.494c-244.048 0-442.556 198.507-442.556 442.49 0 244.016 198.507 442.523 442.556 442.523 243.983 0 442.49-198.507 442.49-442.523 0-243.983-198.507-442.49-442.49-442.49zM725.15 259.449c6.732-6.798 6.732-17.766 0-24.567-3.402-3.399-7.826-5.097-12.315-5.097-4.427 0-8.853 1.698-12.252 5.097l-188.567 188.567-188.629-188.567c-3.337-3.399-7.826-5.097-12.253-5.097-4.423 0-8.912 1.698-12.249 5.097-6.798 6.801-6.798 17.769 0 24.567l188.567 188.534-188.567 188.567c-6.735 6.765-6.735 17.766 0 24.563 6.798 6.768 17.766 6.768 24.563 0l188.567-188.567 188.505 188.567c6.798 6.768 17.766 6.768 24.563 0 6.798-6.798 6.798-17.799 0-24.563l-188.501-188.567 188.567-188.534z" />
<glyph unicode="&#xe90e;" glyph-name="envelope" d="M886.405 792.348h-748.757c-75.91 0-137.647-61.761-137.647-137.647v-413.426c0-75.887 61.737-137.621 137.647-137.621h748.757c75.861 0 137.595 61.735 137.595 137.621v413.426c0 75.887-61.735 137.647-137.595 137.647zM687.173 436.314l271.078 258.325c6.605-11.892 10.721-25.381 10.721-39.939v-413.426c0-17.277-5.385-33.331-14.532-46.62l-267.267 241.66zM886.405 737.268c10.77 0 21.036-2.209 30.537-5.994l-404.917-385.863-404.966 385.863c9.503 3.785 19.766 5.994 30.589 5.994h748.757zM69.56 194.654c-9.145 13.289-14.533 29.343-14.533 46.62v413.426c0 14.558 4.116 28.047 10.773 39.939l271.078-258.325-267.318-241.66zM137.647 158.706c-7.724 0-14.99 1.397-22.051 3.353l261.221 236.144 116.206-110.716c5.284-5.081 12.144-7.623 19.002-7.623 6.811 0 13.668 2.542 18.955 7.623l116.206 110.716 261.221-236.144c-7.063-1.956-14.329-3.353-22.001-3.353h-748.757z" />
<glyph unicode="&#xe90f;" glyph-name="filter" d="M449.042-52.752c-7.385 0-14.496 1.538-21.128 4.752-19.658 9.47-30.94 31.453-30.94 60.274v352.445c0 32-18.564 81.162-39.727 105.231l-336.821 382.667c-26.359 29.949-21.538 53.744-16.342 65.265 5.231 11.521 19.932 30.872 59.795 30.872h896.24c39.863 0 54.564-19.35 59.795-30.872 5.197-11.521 10.017-35.316-16.308-65.265h-0.034l-347.522-394.804c-21.162-24.068-39.727-73.231-39.727-105.265v-207.556c0-46.359-28.41-105.299-64.684-134.154l-57.265-45.539c-14.974-11.932-30.701-18.051-45.333-18.051zM53.144 895.077c1.504-1.026 3.385-4.034 6.701-7.795l336.821-382.667c29.641-33.641 52.821-95.111 52.821-139.898v-352.445c0-7.145 1.162-11.009 1.915-12.752 0.923 0.923 4.684 2.427 10.291 6.872l57.265 45.539c23.897 19.009 44.855 62.496 44.855 93.060v207.556c0 44.821 23.214 106.291 52.855 139.966l347.522 394.769c3.282 3.761 5.162 6.769 6.188 8.821-1.88-0.308-5.368 0.171-10.256 0.137h-896.24c-4.991 0-8.513-0.547-10.735-1.162z" />
<glyph unicode="&#xe910;" glyph-name="home" d="M406.609 139.955h210.792c7.085 0 12.838 5.753 12.838 12.891v174.074c0 7.088-5.753 12.838-12.838 12.838h-210.792c-7.138 0-12.837-5.75-12.837-12.838v-174.074c0-7.138 5.699-12.891 12.837-12.891zM419.447 314.032h185.066v-148.351h-185.066v148.351zM1015.002 518.866l-486.284 416.268c-9.651 8.242-23.825 8.242-33.427 0l-486.337-416.268c-8.163-7.009-11.092-18.383-7.343-28.421 3.696-10.117 13.35-16.818 24.083-16.818h146.449v-493.214c0-14.226 11.502-25.729 25.676-25.729h628.369c14.174 0 25.676 11.502 25.676 25.729v493.214h146.397c10.785 0 20.386 6.702 24.135 16.818 3.749 10.038 0.77 21.412-7.396 28.421zM800.464 6.086h-576.918v467.541h576.918v-467.541zM826.19 525.055h-730.916l416.757 356.677 416.705-356.677h-102.546z" />
<glyph unicode="&#xe911;" glyph-name="pencil" d="M310.124 354.123l-72.769 72.769 397.254 390.752 39.139-99.82-363.624-363.701zM764.576 626.609l-72.769 72.551-363.701-363.546 72.691-72.769 363.779 363.764zM421.891 247.802l74.95-75.043 384.408 384.485-95.811 54.104-363.546-363.546zM222.7 412.529l252.010-252.165-474.71-209.004 222.7 461.169zM230.624 365.839l-127.922-264.868c5.531-0.761 11.214-3.41 11.094-11.255-0.449-15.12 5.974-11.716 17.009-12.010 10.956-0.541 12.922-8.853 8.388-15.956-3.556-5.536-3.32-13.202 9.9-14.786l277.86 122.33-196.327 196.545zM939.749 862.989c-51.164 50.854-108.301 83.648-145.769 83.648-12.396 0-22.379-3.544-29.481-10.648-2.43-2.419-4.281-5.267-5.874-8.302l-89.067-89.139c-21.227-21.35 16.696-93.781 84.743-161.828 68.311-68.173 140.785-106.259 161.94-84.947l95.89 96.044-0.205 0.205c0.402 0.366 0.886 0.631 1.273 1.017 29.156 28.785-2.491 103.596-73.449 173.95z" />
<glyph unicode="&#xe912;" glyph-name="people" d="M760.737 617.943c86.83 0 157.59 70.704 157.59 157.615 0 86.861-70.76 157.509-157.59 157.509-87.050 0-157.862-70.648-157.862-157.509 0-86.911 70.813-157.615 157.862-157.615zM760.737 903.634c70.649 0 128.157-57.453 128.157-128.076 0-70.701-57.509-128.182-128.157-128.182-70.812 0-128.43 57.481-128.43 128.182 0 70.623 57.617 128.076 128.43 128.076zM263.479 617.943c86.886 0 157.643 70.704 157.643 157.615 0 86.861-70.757 157.509-157.643 157.509-87.047 0-157.807-70.648-157.807-157.509 0-86.911 70.76-157.615 157.807-157.615zM263.479 903.634c70.704 0 128.21-57.453 128.21-128.076 0-70.701-57.506-128.182-128.21-128.182-70.757 0-128.374 57.481-128.374 128.182 0 70.623 57.617 128.076 128.374 128.076zM1023.674 440.479c-3.637 87.158-76.949 157.59-164.541 157.59h-195.166c-29.107 54.139-86.232 91.067-151.94 91.067s-122.944-36.928-151.996-91.067h-195.33c-87.428 0-160.576-70.407-164.377-157.481-0.217-0.951-0.325-1.955-0.325-2.958v-157.237c0-8.119 6.57-14.689 14.716-14.689h266.465c-27.314-30.030-44.963-69.155-46.918-112.112-0.269-1.329-0.325-2.633-0.325-4.018v-157.237c0-16.237 13.195-29.405 29.432-29.405h497.311c16.237 0 29.38 13.168 29.38 29.405v157.237c0 1.521-0.109 3.042-0.326 4.507-2.065 42.764-19.604 81.7-46.918 111.622h266.465c8.146 0 14.717 6.57 14.717 14.689v157.237c0 0.976-0.109 1.927-0.326 2.85zM512.028 630.296c62.558 0 113.494-50.855 113.494-113.357 0-62.613-50.936-113.521-113.494-113.521-62.613 0-113.605 50.908-113.605 113.521 0 62.502 50.991 113.357 113.605 113.357zM29.43 435.185c0.111 0.651 0.164 1.329 0.164 2.035 2.063 72.442 62.613 131.441 135.108 131.441h182.841c-5.161-16.343-7.985-33.72-7.985-51.723 0-90.064 69.509-164.107 157.698-171.628v-20.58h-83.952c-35.894 0-69.617-10.941-97.854-29.622h-286.019v140.076zM731.032 148.788c0.056-0.87 0.108-1.765 0.217-2.661v-124.356h-438.446v124.899c0.056 0.678 0.108 1.385 0.108 2.063 1.793 63.917 54.684 115.857 118.381 116.972h201.197c63.859-1.115 116.861-53.002 118.543-116.916zM994.567 295.109h-286.017c-28.346 18.681-62.068 29.622-98.071 29.622h-83.736v20.58c88.134 7.496 157.587 81.564 157.587 171.628 0 18.003-2.769 35.38-7.927 51.723h182.73c72.659 0 133.37-58.974 135.272-131.413 0-0.678 0.053-1.385 0.161-2.038v-140.101z" />
<glyph unicode="&#xe913;" glyph-name="person" d="M617.063 466.023h-26.010c64.103 29.901 108.749 94.823 108.749 169.984 0 103.424-84.173 187.598-187.596 187.598-103.629 0-188.006-84.174-188.006-187.598 0-75.161 44.851-140.082 108.954-169.984h-26.625c-102.809 0-190.054-83.559-194.56-184.32-0.409-2.048-0.409-4.301-0.409-6.349v-167.936c0-19.251 15.565-35.021 35.020-35.021h530.842c19.251 0 35.020 15.77 35.020 35.021v167.936c0 2.253-0.205 4.505-0.409 4.505-4.506 102.605-92.16 186.164-194.97 186.164zM512.205 747.623c61.44 0 111.616-49.971 111.616-111.616s-50.176-111.616-111.616-111.616c-61.85 0-112.026 49.971-112.026 111.616s50.176 111.616 112.026 111.616zM288.564 269.415l0.614 4.71c1.844 64.716 55.91 117.35 120.627 117.35h204.185c64.922 0 118.989-52.634 121.038-119.399v-125.337h-446.055l-0.409 122.676zM973.415 960h-922.83c-27.852 0-50.585-22.733-50.585-50.585v-922.83c0-27.852 22.733-50.585 50.585-50.585h922.83c27.852 0 50.585 22.733 50.585 50.585v922.83c0 27.852-22.733 50.585-50.585 50.585zM990.208-13.415c0-9.215-7.577-16.793-16.793-16.793h-922.83c-9.215 0-16.793 7.577-16.793 16.793v922.83c0 9.215 7.577 16.793 16.793 16.793h922.83c9.215 0 16.793-7.577 16.793-16.793v-922.83z" />
<glyph unicode="&#xe914;" glyph-name="phone" d="M652.434 960h-280.888c-88.992 0-161.397-72.47-161.397-161.479v-701.138c0-88.946 72.404-161.383 161.397-161.383h280.888c88.976 0 161.416 72.437 161.416 161.383v701.138c0 89.009-72.44 161.479-161.416 161.479zM274.707 758.224h474.586v-538.114h-474.586v538.114zM371.546 895.397h280.888c53.403 0 96.859-43.456 96.859-96.876v-8.058h-474.586v8.058c0 53.419 43.456 96.876 96.839 96.876zM652.434 0.604h-280.888c-53.383 0-96.839 43.427-96.839 96.78v90.458h474.586v-90.458c0-53.353-43.456-96.78-96.859-96.78zM509.976 159.6c-37.138 0-67.393-30.239-67.393-67.376 0-37.201 30.255-67.442 67.393-67.442 37.187 0 67.409 30.242 67.409 67.442 0 37.138-30.222 67.376-67.409 67.376zM509.976 57.086c-19.325 0-35.091 15.697-35.091 35.137 0 19.312 15.766 35.108 35.091 35.108 19.375 0 35.108-15.796 35.108-35.108 0-19.44-15.733-35.137-35.108-35.137zM509.976 516.375c51.854 0 94.037 42.169 94.037 94.073 0 51.772-42.182 93.941-94.037 93.941-51.871 0-94.070-42.169-94.070-93.941 0-51.904 42.199-94.073 94.070-94.073zM509.976 672.117c34.045 0 61.751-27.723 61.751-61.669 0-34.045-27.707-61.738-61.751-61.738-34.074 0-61.751 27.693-61.751 61.738 0 33.946 27.677 61.669 61.751 61.669zM661.413 409.669c-2.37 51.613-45.873 93.201-97.777 93.201h-107.449c-52.353 0-96.245-42.651-97.81-95.103 0-0.129 0-4.093 0-4.222v-81.885c0-8.996 7.239-16.153 16.153-16.153h270.909c8.93 0 16.153 7.157 16.153 16.153v85.625c0 0.835-0.066 1.674-0.178 2.383zM629.32 337.78h-238.64v65.766c1.017 35.141 30.433 67.053 65.508 67.053h107.449c35.237 0 64.669-28.562 65.587-63.702 0.033-1.096 0.178-2.255 0.452-3.288l-0.357-65.828z" />
<glyph unicode="&#xe915;" glyph-name="photo" d="M854.831 698.199l-20.014 60.806c-0.115 0.457-0.256 0.867-0.358 1.248l-7.636 23.201c-0.141 0.407-0.243 0.841-0.394 1.274l-3.66 11.041c-1.044 3.135-2.765 6.067-4.984 8.49-24.246 44.87-75.695 76.943-124.734 76.943h-199.717c-48.901 0-100.183-31.843-124.57-76.434-2.295-2.6-4.13-5.634-5.227-9.077l-3.608-11.064c-0.141-0.358-0.253-0.765-0.358-1.146l-29.407-89.388-22.233-6.297-6.461 29.574c-5.801 21.953-29.206 35.795-51.514 29.984l-139.357-36.994c-22.256-6.018-35.615-29.091-30.083-50.481l7.942-35.923c-50.379-18.967-88.456-72.202-88.456-126.1v-374.321c0-59.963 48.784-108.736 108.723-108.736h806.466c59.989 0 108.812 48.773 108.812 108.736v383.372c0 102.465-73.22 183.82-169.171 191.292zM972.95 123.535c0-31.791-25.917-57.668-57.759-57.668h-806.466c-31.767 0-57.618 25.877-57.618 57.668v374.321c0 34.574 28.123 71.338 61.43 80.284 1.211 0.358 2.347 0.765 3.48 1.251l12.226 5.276c11.244 4.845 17.413 17.006 14.8 28.937l-11.002 49.64 121.904 32.634 9.842-45.458c1.543-6.911 5.801-12.85 11.829-16.471 6.044-3.595 13.309-4.59 20.079-2.676l61.417 17.335c8.158 2.321 14.646 8.516 17.299 16.625l34.010 103.358c0.128 0.407 0.269 0.788 0.384 1.222l1.287 3.953c0.624 0.893 1.159 1.888 1.619 2.906 14.406 29.984 50.264 53.439 81.624 53.439h199.717c31.321 0 67.179-23.455 81.47-53.412 0.509-1.070 1.11-2.117 1.783-3.086l1.264-3.822c0.141-0.41 0.243-0.817 0.381-1.198l7.636-23.201c0.115-0.433 0.203-0.791 0.344-1.172l25.953-78.984c3.457-10.505 13.208-17.567 24.272-17.567h4.258c75.567 0 132.538-60.55 132.538-140.759v-383.372zM592.854 570.697c-113.467 0-205.439-92.012-205.439-205.465 0-113.506 91.973-205.442 205.439-205.442 113.48 0 205.426 91.936 205.426 205.442 0 113.454-91.946 205.465-205.426 205.465zM592.854 185.312c-99.215 0-179.893 80.692-179.893 179.92 0 99.202 80.679 179.943 179.893 179.943 99.176 0 179.906-80.741 179.906-179.943 0-99.228-80.731-179.92-179.906-179.92z" />
<glyph unicode="&#xe916;" glyph-name="remove" d="M874.22 810.18c-199.729 199.729-524.729 199.776-724.458 0.046s-199.66-524.706 0.070-724.435c199.683-199.683 524.659-199.752 724.389-0.023s199.683 524.729 0 724.412zM198.992 134.952c-172.642 172.642-172.642 453.495-0.046 626.091 172.619 172.619 453.472 172.619 626.114-0.023 172.596-172.596 172.596-453.449-0.023-626.068-172.596-172.596-453.449-172.596-626.045 0zM529.344 465.397l266.745 0.044c9.597-0.021 17.356-7.78 17.376-17.376 0-9.617-7.782-17.4-17.376-17.376l-266.742-0.046zM529.347 430.665l-301.567 0.044c-4.765-0.044-9.142 1.931-12.273 5.062-3.129 3.129-5.104 7.506-5.060 12.27 0.002 9.62 7.761 17.379 17.379 17.379l301.5-0.023z" />
<glyph unicode="&#xe917;" glyph-name="save" d="M1015.273 819.463l-136.526 132.037c-5.585 5.445-13.166 8.5-21.091 8.5h-109.478c-16.472 0-29.818-12.939-29.818-28.88v-236.054h-357.58v236.054c0 15.941-13.358 28.88-29.833 28.88h-301.113c-16.472 0-29.833-12.939-29.833-28.88v-966.268c0-15.911 13.361-28.853 29.833-28.853h964.333c16.488 0 29.833 12.942 29.833 28.853v834.233c0 7.638-3.127 14.987-8.727 20.377zM794.161 122.077h84.662v-48.506h-84.662v48.506zM764.324 136.489v-142.757h-538.997v336.384h538.997v-193.627zM964.348-6.268h-170.188v50.986h99.555c8.251 0 14.941 6.428 14.941 14.412v77.359c0 8.013-6.69 14.441-14.941 14.441h-99.555v193.657c0 7.954-6.674 14.412-14.926 14.412h-568.845c-8.239 0-14.895-6.458-14.895-14.412v-350.855h-135.827v908.538h241.446v-236.027c0-15.967 13.361-28.88 29.833-28.88h417.232c16.476 0 29.837 12.912 29.837 28.88v236.027h67.293l119.041-115.146v-793.392zM595.939 728.096h70.096c8.251 0 14.908 6.484 14.908 14.471v158.895c0 7.957-6.656 14.441-14.908 14.441h-70.096c-8.236 0-14.923-6.484-14.923-14.441v-158.895c0-7.987 6.686-14.471 14.923-14.471zM610.85 887.053h40.26v-130.077h-40.26v130.077z" />
<glyph unicode="&#xe918;" glyph-name="tools" d="M320.806 176.901c10.654-10.639 10.654-27.872 0-38.514l-43.406-43.444c-5.335-5.332-12.303-7.975-19.284-7.975-6.955 0-13.936 2.643-19.256 7.975-10.654 10.641-10.654 27.898 0 38.54l43.406 43.419c10.654 10.667 27.898 10.667 38.54 0zM752.676 463.734l-75.745-75.745 193.34-168.597c0.376-0.327 0.716-0.631 1.030-0.958 4.026-2.968 7.962-6.113 11.597-9.735 42.365-42.337 42.365-111.090 0.088-153.327-20.464-20.479-47.695-31.772-76.6-31.772h-0.026c-28.929 0-56.159 11.293-76.639 31.772-3.772 3.797-7.004 7.849-10.049 12.048-0.24 0.252-0.453 0.479-0.654 0.706l-168.649 193.301-226.985-226.962c-19.369-19.369-45.142-30.085-72.551-30.085-27.419 0-53.156 10.716-72.525 30.085-39.987 39.974-39.987 105.029 0.026 145.052l236.895 236.872-146.521 168.046c-0.417 0.502-0.58 1.105-0.945 1.659l-11.079-11.043c-5.271-5.283-13.913-5.283-19.232 0.049-8.102 8.076-22.226 8.076-30.314 0-8.225-8.251-8.277-21.785-0.139-30.111 5.183-5.41 5.134-13.91-0.137-19.194l-61.245-61.255c-2.553-2.568-6.012-4.001-9.634-4.001s-7.081 1.432-9.634 4.001l-122.347 122.309c-2.553 2.566-4.001 6.038-4.001 9.66 0 3.599 1.448 7.069 4.001 9.611l61.216 61.229c2.543 2.54 6.012 3.975 9.624 3.975 3.622 0 7.094-1.435 9.634-3.975 8.099-8.099 22.226-8.050 30.314 0 8.339 8.351 8.364 21.96 0 30.389-5.296 5.307-5.296 13.91 0.023 19.22l128.865 128.875c29.521 29.508 71.002 45.786 116.863 45.786 61.883 0 125.794-28.429 175.326-78.012 3.323-3.269 4.706-8.073 3.637-12.653-1.059-4.578-4.415-8.3-8.856-9.861l-156.573-53.733c-0.755-0.453-1.522-0.755-2.352-1.033-3.408-1.157-5.938-2.615-7.937-4.627-3.913-3.874-6.064-9.109-6.064-14.593 0-5.157 1.899-10.036 5.345-13.836 0.379-0.327 0.742-0.577 1.020-0.855 2.792-2.488 4.415-5.987 4.529-9.786 0.074-3.722-1.36-7.344-4.001-10.010l-12.187-12.125c0.502-0.327 1.069-0.505 1.507-0.855l168.007-146.487 85.57 85.534c-25.206 74.362-10.353 157.353 45.935 213.677 46.639 46.564 115.519 66.765 183.414 53.859 4.956-0.956 8.993-4.529 10.454-9.359 1.496-4.856 0.188-10.062-3.372-13.635l-134.547-134.56 27.393-125.781 125.784-27.37 134.547 134.56c3.534 3.521 8.756 4.956 13.648 3.346 4.83-1.435 8.439-5.459 9.382-10.415 12.944-68.148-7.192-136.698-53.872-183.44-37.432-37.357-88.045-57.986-142.584-57.986-24.125 0-48.074 4.328-71.018 12.151zM682.49 538.575c37.986-37.937 89.457-59.722 141.204-59.722 47.231 0 91.054 17.71 123.303 49.987 34.176 34.238 51.86 82.185 49.544 132.121l-119.97-119.996c-3.269-3.297-8.063-4.681-12.54-3.648l-141.593 30.791c-5.219 1.131-9.294 5.232-10.402 10.438l-30.843 141.606c-0.992 4.529 0.392 9.258 3.673 12.504l119.972 119.996c-3.006 0.175-6.038 0.227-9.044 0.227-47.206 0-90.928-17.687-123.066-49.81-70.222-70.237-65.82-188.899 9.761-264.494zM336.893 693.488c-4.325 7.344-6.427 15.32-6.427 23.619 0 12.78 4.982 24.83 14.036 33.862 4.441 4.477 9.737 7.898 16.087 10.34 0.744 0.428 1.522 0.778 2.378 1.056l137.203 47.092c-41.572 35.093-91.456 54.892-139.63 54.892-39.119 0-72.865-13.081-97.595-37.785l-120.598-120.65c10.088-18.439 7.331-42.187-8.276-57.834-15.044-15.044-39.696-18.315-57.873-8.254l-43.305-43.318 103.089-103.066 43.457 43.496c-9.835 18.465-6.994 41.986 8.416 57.432 15.093 15.044 39.696 18.264 57.873 8.251l91.165 90.866zM434.588 435.81l68.035 68.022-166.56 145.253c-0.969 0.781-1.548 1.862-2.213 2.867l-47.522-47.368c1.020-0.629 2.076-1.283 2.932-2.239l145.328-166.536zM657.611 368.669l-87.883-87.896 168.347-193.025c0.943-0.755 1.798-1.659 2.514-2.692 2.53-3.648 5.17-7.169 8.39-10.34 15.358-15.394 35.721-23.872 57.381-23.872h0.026c21.646 0 41.999 8.478 57.332 23.823 31.621 31.62 31.621 83.092 0 114.712-3.22 3.145-6.842 5.837-10.476 8.452-1.095 0.806-2.089 1.762-2.883 2.792l-192.747 168.046zM725.471 475.079c-22.728 11.17-43.937 25.938-62.25 44.251-18.74 18.717-33.357 39.848-44.312 62.187l-421.319-421.267c-29.369-29.359-29.369-77.18-0.026-106.513 28.439-28.426 78.074-28.478 106.551 0l421.355 421.342z" />
</font>
</defs>
</svg>
