<?xml version="1.0" encoding="utf-8"?>
<!-- Generator: Adobe Illustrator 19.0.0, SVG Export Plug-In . SVG Version: 6.00 Build 0)  -->
<svg version="1.1" id="Layer_1" xmlns="http://www.w3.org/2000/svg" xmlns:xlink="http://www.w3.org/1999/xlink" x="0px" y="0px"
	 viewBox="0 0 169.1 74" style="enable-background:new 0 0 169.1 74;" xml:space="preserve">
<style type="text/css">
	.st0{fill:#FFFFFF;}
</style>
<polygon id="XMLID_277_" class="st0" points="19.8,18 19.8,18 0,18 0,74 6.5,74 6.5,33.9 19.8,74 19.8,74 29.9,74 44.2,29.2 
	44.2,74 62.2,74 62.2,15.8 42.9,15.8 31,52.8 "/>
<polygon id="XMLID_273_" class="st0" points="31.2,74 42.9,74 42.9,37.2 "/>
<polygon id="XMLID_270_" class="st0" points="62.2,7.4 62.2,0 0,0 0,7.4 19.8,7.4 19.8,14 31,48.7 42.9,11.7 42.9,7.4 "/>
<path id="XMLID_262_" class="st0" d="M129.1,45.4c1.7,2.3,3.9,3.4,6.8,3.4c1.4,0,2.6-0.2,3.7-0.7c0,0,0.7-0.3,1.2-0.6
	c3.5-2.2,5.2-7.3,5.2-15.3c0-4.2-0.7-7.8-2.1-10.8c-0.8-1.8-1.9-3.2-3.1-4.1c-0.5-0.4-1.2-0.8-1.2-0.8c-1.1-0.5-2.2-0.8-3.6-0.8
	c-2.8,0-5.1,1.5-7,4.6l-0.1,0.2l-0.1,0.1l-1,1.6v-6.4c-3.7,0.4-7.1,0.7-10,0.7v30.3l3.3,11.8l0.1,0.3h6.7v-15l0.7,0.9L129.1,45.4z
	 M132.1,19.7c2,0,3,4.1,3,12.2c0,8.4-1.1,12.7-3.2,12.7c-2.4,0-3.6-4.2-3.6-12.7C128.4,23.8,129.7,19.7,132.1,19.7z"/>
<path id="XMLID_90_" class="st0" d="M152.1,45.4c1.7,2.3,3.9,3.4,6.8,3.4c6.9,0,10.2-5.4,10.2-16.7c0-4.2-0.7-7.8-2.1-10.8
	c-1.8-3.8-4.4-5.7-7.9-5.7c-2.8,0-5.1,1.5-7,4.6l-0.1,0.2l-0.1,0.1l-1,1.6v-6.4c-3.3,0.4-6.3,0.6-9,0.7c1.3,1.1,2.4,2.5,3.2,4.4
	c1.5,3.1,2.2,6.9,2.2,11.3c0,8.9-2.2,14.5-6.5,16.8v10h10v-15l0.7,0.9L152.1,45.4z M155.1,19.7c2,0,3,4.1,3,12.2
	c0,8.4-1.1,12.7-3.2,12.7c-2.4,0-3.6-4.2-3.6-12.7C151.4,23.8,152.6,19.7,155.1,19.7z"/>
<path id="XMLID_87_" class="st0" d="M103.8,61.4l3.5,12.6h17l-2.1-7.5l-1.2-4.5L108,15.8H93.1L75.9,74h6.6l3.7-12.6H103.8z
	 M95.3,32.1l6.1,22.9H88.7L95.3,32.1z"/>
</svg>
